<svg width="171" height="172" viewBox="0 0 171 172" fill="none" xmlns="http://www.w3.org/2000/svg">
<path fill-rule="evenodd" clip-rule="evenodd" d="M3.06279 45.4255L82.6088 0.768099C84.4081 -0.241985 86.6001 -0.256718 88.4127 0.729095L167.867 43.9409C169.798 44.9912 171 47.0135 171 49.2118V120.623C171 122.797 169.823 124.802 167.924 125.862L87.9106 170.521C86.1005 171.531 83.8971 171.535 82.083 170.532L3.09664 126.857C1.18597 125.801 0 123.79 0 121.606V50.6574C0 48.488 1.17108 46.4875 3.06279 45.4255ZM85.0073 18.4224C85.313 18.2503 85.6866 18.2509 85.9917 18.4242L142.968 50.7752C143.643 51.1585 143.643 52.1313 142.968 52.5145L126.501 61.8609C126.191 62.0368 125.811 62.0345 125.503 61.8549L69.2454 29.0242C68.5782 28.6349 68.5857 27.6682 69.2589 27.2892L85.0073 18.4224ZM85.9972 85.3585C85.6893 85.5359 85.3103 85.5366 85.0018 85.3603L27.5307 52.5197C26.8564 52.1344 26.8595 51.1611 27.5362 50.7801L49.48 38.4251C49.7884 38.2515 50.1655 38.2538 50.4718 38.4311L107.312 71.3449C107.978 71.7305 107.977 72.6924 107.31 73.0767L85.9972 85.3585ZM153.973 115.928C154.298 115.754 154.5 115.415 154.5 115.047V68.8015C154.5 68.049 153.7 67.5661 153.034 67.9167L137.534 76.0763C137.206 76.2492 137 76.5899 137 76.9612V102.019C137 102.402 136.781 102.751 136.437 102.919L120.937 110.447C120.273 110.77 119.5 110.286 119.5 109.548V87.8477C119.5 87.0845 118.679 86.6026 118.013 86.9743L94.0191 100.355C93.6992 100.534 93.5024 100.873 93.5063 101.239L93.9826 146.493C93.9905 147.244 94.7937 147.719 95.4558 147.363L153.973 115.928ZM16.5 67.8431C16.5 67.081 17.3185 66.599 17.985 66.9686L75.485 98.8594C75.8028 99.0356 76 99.3705 76 99.7339V147.422C76 148.19 75.1705 148.671 74.5039 148.29L17.0039 115.433C16.6923 115.255 16.5 114.924 16.5 114.565V67.8431Z" fill="black"/>
</svg>
