<svg width="540" height="191" viewBox="0 0 540 191" fill="none" xmlns="http://www.w3.org/2000/svg">
<path d="M540 0V82.5C540 82.5 503.5 161 331 185C158.5 209 0 143 0 143V0H540Z" fill="#2F3676"/>
<g style="mix-blend-mode:overlay" opacity="0.3">
<path fill-rule="evenodd" clip-rule="evenodd" d="M328.063 59.4255L407.609 14.7681C409.408 13.758 411.6 13.7433 413.413 14.7291L492.867 57.9409C494.798 58.9912 496 61.0135 496 63.2118V134.623C496 136.797 494.823 138.802 492.924 139.862L412.911 184.521C411.1 185.531 408.897 185.535 407.083 184.532L328.097 140.857C326.186 139.801 325 137.79 325 135.606V64.6574C325 62.488 326.171 60.4876 328.063 59.4255ZM410.007 32.4224C410.313 32.2503 410.687 32.2509 410.992 32.4242L467.968 64.7752C468.643 65.1585 468.643 66.1313 467.968 66.5145L451.501 75.8609C451.191 76.0368 450.811 76.0345 450.503 75.8549L394.245 43.0242C393.578 42.6349 393.586 41.6682 394.259 41.2892L410.007 32.4224ZM410.997 99.3585C410.689 99.5359 410.31 99.5366 410.002 99.3603L352.531 66.5197C351.856 66.1344 351.86 65.1611 352.536 64.7801L374.48 52.4251C374.788 52.2515 375.166 52.2538 375.472 52.4311L432.312 85.3449C432.978 85.7305 432.977 86.6924 432.31 87.0767L410.997 99.3585ZM478.973 129.928C479.298 129.754 479.5 129.415 479.5 129.047V82.8015C479.5 82.049 478.7 81.5661 478.034 81.9167L462.534 90.0763C462.206 90.2492 462 90.5899 462 90.9612V116.019C462 116.402 461.781 116.751 461.437 116.919L445.937 124.447C445.273 124.77 444.5 124.286 444.5 123.548V101.848C444.5 101.084 443.679 100.603 443.013 100.974L419.019 114.355C418.699 114.534 418.502 114.873 418.506 115.239L418.983 160.493C418.991 161.244 419.794 161.719 420.456 161.363L478.973 129.928ZM341.5 81.8431C341.5 81.081 342.319 80.599 342.985 80.9686L400.485 112.859C400.803 113.036 401 113.37 401 113.734V161.422C401 162.19 400.171 162.671 399.504 162.29L342.004 129.433C341.692 129.255 341.5 128.924 341.5 128.565V81.8431Z" fill="black"/>
</g>
</svg>
